<svg width="20" height="16" viewBox="0 0 20 16" fill="none" xmlns="http://www.w3.org/2000/svg">
<path d="M18.125 0.65625C19.1406 0.65625 20 1.51562 20 2.53125C20 3.15625 19.6875 3.70312 19.2188 4.05469L10.7422 10.4219C10.2734 10.7734 9.6875 10.7734 9.21875 10.4219L0.742188 4.05469C0.273438 3.70312 0 3.15625 0 2.53125C0 1.51562 0.820312 0.65625 1.875 0.65625H18.125ZM8.47656 11.4375C9.375 12.1016 10.5859 12.1016 11.4844 11.4375L20 5.03125V13.1562C20 14.5625 18.8672 15.6562 17.5 15.6562H2.5C1.09375 15.6562 0 14.5625 0 13.1562V5.03125L8.47656 11.4375Z" fill="white"/>
</svg>
