<svg width="12" height="21" viewBox="0 0 12 21" fill="none" xmlns="http://www.w3.org/2000/svg">
<path d="M11.5 5.78125C11.5 8.90625 8.96094 11.4062 5.875 11.4062C2.75 11.4062 0.25 8.90625 0.25 5.78125C0.25 2.69531 2.75 0.15625 5.875 0.15625C8.96094 0.15625 11.5 2.69531 11.5 5.78125ZM6.5 2.65625C6.5 2.34375 6.1875 2.03125 5.875 2.03125C3.76562 2.03125 2.125 3.71094 2.125 5.78125C2.125 6.13281 2.39844 6.40625 2.75 6.40625C3.0625 6.40625 3.375 6.13281 3.375 5.78125C3.375 4.41406 4.46875 3.28125 5.875 3.28125C6.1875 3.28125 6.5 3.00781 6.5 2.65625ZM4.625 18.9062V12.5781C5.01562 12.6172 5.44531 12.6562 5.875 12.6562C6.26562 12.6562 6.69531 12.6172 7.125 12.5781V18.9062C7.125 19.6094 6.53906 20.1562 5.875 20.1562C5.17188 20.1562 4.625 19.6094 4.625 18.9062Z" fill="white"/>
</svg>
