<svg width="18" height="18" viewBox="0 0 18 18" fill="none" xmlns="http://www.w3.org/2000/svg">
<path d="M15 0.40625H2.5C1.09375 0.40625 0 1.53906 0 2.90625V15.4062C0 16.8125 1.09375 17.9062 2.5 17.9062H15C16.3672 17.9062 17.5 16.8125 17.5 15.4062V2.90625C17.5 1.53906 16.3672 0.40625 15 0.40625ZM13.7109 11.7344L13.2422 13.6875C13.2031 14 12.9688 14.1562 12.6562 14.1562C7.73438 14.1562 3.75 10.1719 3.75 5.25C3.75 4.9375 3.94531 4.70312 4.21875 4.625L6.17188 4.19531C6.44531 4.11719 6.75781 4.27344 6.875 4.54688L7.77344 6.65625C7.89062 6.92969 7.8125 7.20312 7.61719 7.35938L6.5625 8.21875C7.22656 9.58594 8.32031 10.6797 9.6875 11.3438L10.5469 10.2891C10.7031 10.0938 10.9766 10.0156 11.25 10.1328L13.3594 11.0312C13.6328 11.1484 13.7891 11.4609 13.7109 11.7344Z" fill="white"/>
</svg>
