<svg width="27" height="23" viewBox="0 0 27 23" fill="none" xmlns="http://www.w3.org/2000/svg">
<mask id="mask0_424_352" style="mask-type:luminance" maskUnits="userSpaceOnUse" x="0" y="0" width="27" height="23">
<path d="M26.8594 0.84375H0.140625V22.2188H26.8594V0.84375Z" fill="white"/>
<path d="M12.8536 2.42261V7.45514C12.8536 8.90242 12.574 10.4072 12.0148 11.9696C11.4721 13.5156 10.7238 14.9957 9.76993 16.4101C8.81605 17.808 7.7306 19.0086 6.51358 20.0118L2.36914 17.3228C3.27368 15.9578 4.06309 14.4859 4.7374 12.9071C5.41168 11.3118 5.74883 9.51092 5.74883 7.50449V2.42261H12.8536ZM25.3116 2.42261V7.45514C25.3116 8.90242 25.032 10.4072 24.4728 11.9696C23.9301 13.5156 23.1819 14.9957 22.2279 16.4101C21.274 17.808 20.1968 19.0086 18.9962 20.0118L14.8518 17.3228C15.7399 15.9578 16.5211 14.4859 17.1954 12.9071C17.8696 11.3118 18.2068 9.51092 18.2068 7.50449V2.42261H25.3116Z" fill="black"/>
</mask>
<g mask="url(#mask0_424_352)">
<path d="M12.853 2.42261H14.1889V1.08667H12.853V2.42261ZM12.0142 11.9696L10.7564 11.5195L10.7537 11.5271L12.0142 11.9696ZM9.7693 16.4101L10.8728 17.1631L10.8769 17.157L9.7693 16.4101ZM6.51295 20.0118L5.78583 21.1325L6.6072 21.6654L7.36272 21.0426L6.51295 20.0118ZM2.36852 17.3228L1.25489 16.5849L0.509766 17.7093L1.64138 18.4435L2.36852 17.3228ZM4.73677 12.9071L5.96535 13.4318L5.9673 13.4272L4.73677 12.9071ZM5.74821 2.42261V1.08667H4.41227V2.42261H5.74821ZM25.311 2.42261H26.6469V1.08667H25.311V2.42261ZM24.4721 11.9696L23.2144 11.5195L23.2117 11.5271L24.4721 11.9696ZM22.2272 16.4101L23.3309 17.1631L23.3349 17.157L22.2272 16.4101ZM18.9956 20.0118L18.2685 21.1325L19.0957 21.6692L19.8522 21.037L18.9956 20.0118ZM14.8511 17.3228L13.7314 16.5943L13.0019 17.7156L14.1241 18.4435L14.8511 17.3228ZM17.1948 12.9071L18.4233 13.4318L18.4253 13.4272L17.1948 12.9071ZM18.2062 2.42261V1.08667H16.8703V2.42261H18.2062ZM11.517 2.42261V7.45514H14.1889V2.42261H11.517ZM11.517 7.45514C11.517 8.72829 11.2713 10.0807 10.7564 11.5195L13.272 12.4198C13.8754 10.7338 14.1889 9.07653 14.1889 7.45514H11.517ZM10.7537 11.5271C10.2503 12.9611 9.55447 14.3394 8.66172 15.6631L10.8769 17.157C11.8919 15.6521 12.6927 14.0701 13.2747 12.4122L10.7537 11.5271ZM8.66579 15.657C7.77779 16.9585 6.77612 18.0636 5.6632 18.981L7.36272 21.0426C8.68384 19.9537 9.85306 18.6576 10.8728 17.1631L8.66579 15.657ZM7.24009 18.8911L3.09565 16.2021L1.64138 18.4435L5.78583 21.1325L7.24009 18.8911ZM3.48214 18.0608C4.43349 16.6252 5.26081 15.0814 5.96535 13.4318L3.50819 12.3824C2.86415 13.8904 2.11263 15.2905 1.25489 16.5849L3.48214 18.0608ZM5.9673 13.4272C6.72131 11.6433 7.08415 9.66156 7.08415 7.50449H4.41227C4.41227 9.36028 4.10082 10.9802 3.50624 12.3869L5.9673 13.4272ZM7.08415 7.50449V2.42261H4.41227V7.50449H7.08415ZM5.74821 3.75855H12.853V1.08667H5.74821V3.75855ZM23.975 2.42261V7.45514H26.6469V2.42261H23.975ZM23.975 7.45514C23.975 8.72829 23.7294 10.0807 23.2144 11.5195L25.7301 12.4198C26.3334 10.7338 26.6469 9.07653 26.6469 7.45514H23.975ZM23.2117 11.5271C22.7083 12.9611 22.0124 14.3394 21.1197 15.6631L23.3349 17.157C24.3499 15.6521 25.1507 14.0701 25.7327 12.4122L23.2117 11.5271ZM21.1238 15.657C20.2336 16.9616 19.2378 18.0686 18.139 18.9867L19.8522 21.037C21.1546 19.9486 22.3131 18.6544 23.3309 17.1631L21.1238 15.657ZM19.7228 18.8911L15.5783 16.2021L14.1241 18.4435L18.2685 21.1325L19.7228 18.8911ZM15.971 18.0515C16.9034 16.6183 17.7203 15.0778 18.4233 13.4318L15.9662 12.3824C15.3206 13.894 14.5752 15.2973 13.7314 16.5943L15.971 18.0515ZM18.4253 13.4272C19.1793 11.6433 19.5421 9.66156 19.5421 7.50449H16.8703C16.8703 9.36028 16.5589 10.9802 15.9642 12.3869L18.4253 13.4272ZM19.5421 7.50449V2.42261H16.8703V7.50449H19.5421ZM18.2062 3.75855H25.311V1.08667H18.2062V3.75855Z" fill="#87522E"/>
</g>
</svg>
